<svg width="17" height="17" viewBox="0 0 17 17" fill="none" xmlns="http://www.w3.org/2000/svg">
<g clip-path="url(#clip0_7501_110)">
<path fill-rule="evenodd" clip-rule="evenodd" d="M0.833374 5C0.833374 4.44772 1.28109 4 1.83337 4H14.8334C15.3857 4 15.8334 4.44772 15.8334 5V12C15.8334 12.5523 15.3857 13 14.8334 13H1.83337C1.28109 13 0.833374 12.5523 0.833374 12V5ZM14.8334 5H1.83337V12H14.8334V5Z" fill="#8047F8"/>
<path fill-rule="evenodd" clip-rule="evenodd" d="M8.33337 7C7.50495 7 6.83337 7.67157 6.83337 8.5C6.83337 9.32843 7.50495 10 8.33337 10C9.1618 10 9.83337 9.32843 9.83337 8.5C9.83337 7.67157 9.1618 7 8.33337 7ZM5.83337 8.5C5.83337 7.11929 6.95266 6 8.33337 6C9.71409 6 10.8334 7.11929 10.8334 8.5C10.8334 9.88071 9.71409 11 8.33337 11C6.95266 11 5.83337 9.88071 5.83337 8.5Z" fill="#8047F8"/>
<path fill-rule="evenodd" clip-rule="evenodd" d="M10.9571 4.17075C11.1389 3.96294 11.4548 3.94188 11.6626 4.12372L15.6626 7.62372C15.8705 7.80556 15.8915 8.12144 15.7097 8.32926C15.5278 8.53708 15.2119 8.55814 15.0041 8.37629L11.0041 4.8763C10.7963 4.69445 10.7753 4.37857 10.9571 4.17075Z" fill="#8047F8"/>
<path fill-rule="evenodd" clip-rule="evenodd" d="M15.7097 8.67075C15.8915 8.87857 15.8705 9.19445 15.6626 9.3763L11.6626 12.8763C11.4548 13.0581 11.1389 13.0371 10.9571 12.8293C10.7753 12.6214 10.7963 12.3056 11.0041 12.1237L15.0041 8.62372C15.2119 8.44188 15.5278 8.46294 15.7097 8.67075Z" fill="#8047F8"/>
<path fill-rule="evenodd" clip-rule="evenodd" d="M5.70967 4.17075C5.89151 4.37857 5.87045 4.69445 5.66263 4.8763L1.66263 8.37629C1.45481 8.55814 1.13893 8.53708 0.957093 8.32926C0.775252 8.12144 0.79631 7.80556 1.00413 7.62372L5.00413 4.12372C5.21195 3.94188 5.52783 3.96294 5.70967 4.17075Z" fill="#8047F8"/>
<path fill-rule="evenodd" clip-rule="evenodd" d="M0.957093 8.67075C1.13893 8.46294 1.45481 8.44188 1.66263 8.62372L5.66263 12.1237C5.87045 12.3056 5.89151 12.6214 5.70967 12.8293C5.52783 13.0371 5.21195 13.0581 5.00413 12.8763L1.00413 9.3763C0.79631 9.19445 0.775252 8.87857 0.957093 8.67075Z" fill="#574F4D"/>
</g>
<defs>
<clipPath id="clip0_7501_110">
<rect width="16" height="16" fill="white" transform="translate(0.333374 0.5)"/>
</clipPath>
</defs>
</svg>
