<svg width="17" height="17" viewBox="0 0 17 17" fill="none" xmlns="http://www.w3.org/2000/svg">
<g clip-path="url(#clip0_7501_101)">
<path fill-rule="evenodd" clip-rule="evenodd" d="M8.40462 2.07417C8.56532 1.97528 8.76801 1.97528 8.92872 2.07417L15.4287 6.07417C15.6192 6.19141 15.7087 6.42093 15.6478 6.63617C15.5868 6.85141 15.3904 7 15.1667 7H2.16667C1.94297 7 1.74649 6.85141 1.68557 6.63617C1.62465 6.42093 1.71411 6.19141 1.90462 6.07417L8.40462 2.07417ZM3.93319 6H13.4001L8.66667 3.08709L3.93319 6Z" fill="#8047F8"/>
<path fill-rule="evenodd" clip-rule="evenodd" d="M4.16669 6C4.44283 6 4.66669 6.22386 4.66669 6.5V11.5C4.66669 11.7761 4.44283 12 4.16669 12C3.89054 12 3.66669 11.7761 3.66669 11.5V6.5C3.66669 6.22386 3.89054 6 4.16669 6Z" fill="#8047F8"/>
<path fill-rule="evenodd" clip-rule="evenodd" d="M7.16669 6C7.44283 6 7.66669 6.22386 7.66669 6.5V11.5C7.66669 11.7761 7.44283 12 7.16669 12C6.89054 12 6.66669 11.7761 6.66669 11.5V6.5C6.66669 6.22386 6.89054 6 7.16669 6Z" fill="#8047F8"/>
<path fill-rule="evenodd" clip-rule="evenodd" d="M10.1667 6C10.4428 6 10.6667 6.22386 10.6667 6.5V11.5C10.6667 11.7761 10.4428 12 10.1667 12C9.89054 12 9.66669 11.7761 9.66669 11.5V6.5C9.66669 6.22386 9.89054 6 10.1667 6Z" fill="#8047F8"/>
<path fill-rule="evenodd" clip-rule="evenodd" d="M13.1667 6C13.4428 6 13.6667 6.22386 13.6667 6.5V11.5C13.6667 11.7761 13.4428 12 13.1667 12C12.8905 12 12.6667 11.7761 12.6667 11.5V6.5C12.6667 6.22386 12.8905 6 13.1667 6Z" fill="#8047F8"/>
<path fill-rule="evenodd" clip-rule="evenodd" d="M2.16669 11.5C2.16669 11.2239 2.39054 11 2.66669 11H14.6667C14.9428 11 15.1667 11.2239 15.1667 11.5C15.1667 11.7761 14.9428 12 14.6667 12H2.66669C2.39054 12 2.16669 11.7761 2.16669 11.5Z" fill="#8047F8"/>
<path fill-rule="evenodd" clip-rule="evenodd" d="M1.16669 13.5C1.16669 13.2239 1.39054 13 1.66669 13H15.6667C15.9428 13 16.1667 13.2239 16.1667 13.5C16.1667 13.7761 15.9428 14 15.6667 14H1.66669C1.39054 14 1.16669 13.7761 1.16669 13.5Z" fill="#8047F8"/>
</g>
<defs>
<clipPath id="clip0_7501_101">
<rect width="16" height="16" fill="white" transform="translate(0.666687 0.5)"/>
</clipPath>
</defs>
</svg>
