<svg width="30" height="30" viewBox="0 0 30 30" fill="none" xmlns="http://www.w3.org/2000/svg">
<g filter="url(#filter0_d_220_3796)">
<path fill-rule="evenodd" clip-rule="evenodd" d="M8.125 19.9375C8.125 19.5578 8.4328 19.25 8.8125 19.25H21.1875C21.5672 19.25 21.875 19.5578 21.875 19.9375C21.875 20.3172 21.5672 20.625 21.1875 20.625H8.8125C8.4328 20.625 8.125 20.3172 8.125 19.9375Z" fill="#C47F17"/>
<path fill-rule="evenodd" clip-rule="evenodd" d="M15 6.875C13.8609 6.875 12.9375 7.79841 12.9375 8.9375C12.9375 10.0766 13.8609 11 15 11C16.1391 11 17.0625 10.0766 17.0625 8.9375C17.0625 7.79841 16.1391 6.875 15 6.875ZM11.5625 8.9375C11.5625 7.03902 13.1015 5.5 15 5.5C16.8985 5.5 18.4375 7.03902 18.4375 8.9375C18.4375 10.836 16.8985 12.375 15 12.375C13.1015 12.375 11.5625 10.836 11.5625 8.9375Z" fill="#C47F17"/>
<path fill-rule="evenodd" clip-rule="evenodd" d="M15 2.75C13.359 2.75 11.7852 3.4019 10.6248 4.56228C9.4644 5.72266 8.8125 7.29647 8.8125 8.9375C8.8125 11.7837 10.4019 14.3754 12.0813 16.3067C12.9126 17.2627 13.7457 18.0335 14.371 18.565C14.6184 18.7753 14.8324 18.9474 15 19.0781C15.1676 18.9474 15.3816 18.7753 15.629 18.565C16.2543 18.0335 17.0874 17.2627 17.9187 16.3067C19.5981 14.3754 21.1875 11.7837 21.1875 8.9375C21.1875 7.29647 20.5356 5.72266 19.3752 4.56228C18.2148 3.4019 16.641 2.75 15 2.75ZM15 19.9375C14.6057 20.5007 14.6056 20.5006 14.6053 20.5004L14.6048 20.5L14.6032 20.4989L14.5981 20.4953L14.5806 20.4829C14.5657 20.4723 14.5445 20.457 14.5174 20.4372C14.4632 20.3977 14.3853 20.3399 14.2871 20.2649C14.0908 20.1148 13.8128 19.8952 13.4805 19.6127C12.8168 19.0486 11.9312 18.2295 11.0437 17.2089C9.28561 15.1871 7.4375 12.2788 7.4375 8.9375C7.4375 6.9318 8.23426 5.00825 9.6525 3.59C11.0707 2.17176 12.9943 1.375 15 1.375C17.0057 1.375 18.9293 2.17176 20.3475 3.59C21.7657 5.00825 22.5625 6.9318 22.5625 8.9375C22.5625 12.2788 20.7144 15.1871 18.9563 17.2089C18.0688 18.2295 17.1832 19.0486 16.5195 19.6127C16.1872 19.8952 15.9092 20.1148 15.7129 20.2649C15.6147 20.3399 15.5368 20.3977 15.4826 20.4372C15.4555 20.457 15.4343 20.4723 15.4194 20.4829L15.4019 20.4953L15.3968 20.4989L15.3952 20.5L15.3947 20.5004C15.3944 20.5006 15.3943 20.5007 15 19.9375ZM15 19.9375L15.3943 20.5007C15.1575 20.6664 14.8425 20.6664 14.6057 20.5007L15 19.9375Z" fill="#C47F17"/>
<rect x="4.5" y="0.5" width="21" height="21" stroke="black" shape-rendering="crispEdges"/>
</g>
<defs>
<filter id="filter0_d_220_3796" x="0" y="0" width="30" height="30" filterUnits="userSpaceOnUse" color-interpolation-filters="sRGB">
<feFlood flood-opacity="0" result="BackgroundImageFix"/>
<feColorMatrix in="SourceAlpha" type="matrix" values="0 0 0 0 0 0 0 0 0 0 0 0 0 0 0 0 0 0 127 0" result="hardAlpha"/>
<feOffset dy="4"/>
<feGaussianBlur stdDeviation="2"/>
<feComposite in2="hardAlpha" operator="out"/>
<feColorMatrix type="matrix" values="0 0 0 0 0 0 0 0 0 0 0 0 0 0 0 0 0 0 0.25 0"/>
<feBlend mode="normal" in2="BackgroundImageFix" result="effect1_dropShadow_220_3796"/>
<feBlend mode="normal" in="SourceGraphic" in2="effect1_dropShadow_220_3796" result="shape"/>
</filter>
</defs>
</svg>
