<svg width="1440" height="548" viewBox="0 0 1440 548" fill="none" xmlns="http://www.w3.org/2000/svg">
<g clip-path="url(#clip0_212_16580)" filter="url(#filter0_f_212_16580)">
<path opacity="0.15" d="M1374.19 239.629C1407.7 276.991 1434.88 341.946 1384.8 387.804C1379.63 392.532 1331.18 435.426 1258.3 430.1C1169.54 423.612 1151.34 353.391 1053.38 335.162C947.298 315.421 885.037 382.215 833.231 361.696C771.971 337.433 764.451 206.578 875.331 150.494C1008.91 82.9308 1284.08 139.167 1374.19 239.629Z" fill="#EBC136"/>
<path opacity="0.15" d="M539.245 432.798C570.307 413.588 604.155 374.885 583.134 335.736C580.966 331.7 560.262 294.806 511.679 285.921C452.505 275.098 423.162 318.848 355.092 314.29C281.375 309.354 257.688 254.156 218.971 259.005C173.189 264.738 135.627 350.77 193.513 407.121C263.248 475.005 455.723 484.453 539.245 432.798Z" fill="#EBC136"/>
<path opacity="0.15" d="M721.575 324.257C706.187 303.011 690.464 262.135 703.947 224.498C705.337 220.618 718.519 185.209 744.877 179.608C776.983 172.787 790.013 218.393 826.481 218.418C865.973 218.444 881.817 164.979 902.122 172.414C926.131 181.206 941.044 269.538 906.944 321.857C865.865 384.885 762.953 381.385 721.575 324.257Z" fill="#EBC136"/>
<path opacity="0.15" d="M709.467 276.823C726.285 266.066 744.622 244.417 733.277 222.561C732.107 220.308 720.931 199.712 694.654 194.785C662.649 188.785 646.745 213.25 609.923 210.757C570.047 208.056 557.27 177.236 536.322 179.975C511.55 183.214 491.171 231.308 522.448 262.746C560.128 300.618 664.247 305.746 709.467 276.823Z" fill="#EBC136"/>
<path opacity="0.15" d="M1433.62 250.191C1451.76 233.753 1471.7 200.961 1459.95 168.421C1458.74 165.066 1447.14 134.411 1419.17 127.525C1385.09 119.138 1367.7 156.104 1328.42 153.064C1285.89 149.771 1272.75 103.824 1250.34 108.325C1223.83 113.647 1201.28 186.109 1234.15 232.632C1273.76 288.676 1384.86 294.393 1433.62 250.191Z" fill="#8047F8"/>
<path opacity="0.15" d="M1445.61 380.631C1459.71 391.663 1475.15 413.745 1465.84 435.803C1464.88 438.077 1455.7 458.86 1433.82 463.645C1407.16 469.474 1393.73 444.557 1363.03 446.794C1329.79 449.217 1319.35 480.347 1301.86 477.407C1281.17 473.93 1263.84 425.034 1289.71 393.424C1320.88 355.343 1407.69 350.966 1445.61 380.631Z" fill="#8047F8"/>
<path opacity="0.15" d="M246.937 137.898C259.507 159.782 271.932 201.527 259.695 239.238C258.433 243.126 246.5 278.592 224.055 283.572C196.717 289.638 186.675 243.18 155.792 242.21C122.347 241.16 107.765 294.817 90.7319 286.772C70.5904 277.258 59.883 187.544 89.8998 135.52C126.06 72.847 213.139 79.0533 246.937 137.898Z" fill="#EBC136"/>
<path opacity="0.15" d="M888.507 436.13C862.621 416.769 837.462 377.938 863.926 339.002C866.654 334.988 892.434 298.301 939.6 289.734C997.048 279.301 1017.11 323.139 1081.84 319.011C1151.94 314.542 1183.66 259.607 1219.2 264.685C1261.23 270.689 1281.76 356.77 1217.71 412.643C1140.55 479.953 958.112 488.191 888.507 436.13Z" fill="#EBC136"/>
<path opacity="0.15" d="M814.922 402.476C836.564 383.311 859.249 346.433 841.967 312.468C840.185 308.966 823.248 277.011 787.43 271.947C743.805 265.78 724.654 306.927 674.868 306.936C620.953 306.945 600.92 258.696 572.979 265.398C539.939 273.322 516.942 353.021 561.931 400.242C616.129 457.129 756.728 454.009 814.922 402.476Z" fill="#8047F8"/>
<path opacity="0.15" d="M862.472 142.041C903.019 152.781 946.079 172.725 915.336 189.642C912.167 191.386 881.993 207.275 816.11 208.531C735.863 210.061 699.181 188.042 607.369 186.143C507.943 184.086 472.601 208.288 420.852 203.757C359.659 198.399 314.602 156.286 396 133.566C494.058 106.195 753.443 113.161 862.472 142.041Z" fill="#8047F8"/>
<path opacity="0.15" d="M195.139 385.682C214.225 363.367 234.35 320.722 219.454 282.037C217.918 278.048 203.31 241.663 171.98 236.411C133.82 230.014 116.761 277.5 73.1632 278.281C25.9491 279.127 8.74422 224.103 -15.771 232.221C-44.7596 241.821 -65.4579 333.58 -26.3915 387.039C20.6708 451.439 143.816 445.684 195.139 385.682Z" fill="#8047F8"/>
</g>
<defs>
<filter id="filter0_f_212_16580" x="-160" y="-160" width="1760" height="868" filterUnits="userSpaceOnUse" color-interpolation-filters="sRGB">
<feFlood flood-opacity="0" result="BackgroundImageFix"/>
<feBlend mode="normal" in="SourceGraphic" in2="BackgroundImageFix" result="shape"/>
<feGaussianBlur stdDeviation="80" result="effect1_foregroundBlur_212_16580"/>
</filter>
<clipPath id="clip0_212_16580">
<rect width="1440" height="548" fill="white"/>
</clipPath>
</defs>
</svg>
